<svg xmlns="http://www.w3.org/2000/svg" width="17" height="17" viewBox="0 0 17 17">
    <g fill="none" fill-rule="evenodd">
        <g fill="#000">
            <g>
                <g>
                    <path d="M9.664.001c1.285.004 1.615.017 2.34.05.905.041 1.523.185 2.064.395.559.217 1.033.508 1.505.98.473.473.764.947.98 1.506.21.54.355 1.159.396 2.063.035.762.047 1.088.05 2.541v.447L17 8.5v.964c-.004 1.453-.016 1.779-.051 2.54-.041.905-.185 1.523-.395 2.064-.217.559-.508 1.033-.98 1.505-.473.473-.947.764-1.506.98-.54.21-1.159.355-2.063.396-.762.035-1.088.047-2.541.05h-.447L8.5 17h-.964c-1.453-.004-1.779-.016-2.54-.051-.905-.041-1.523-.185-2.064-.395-.559-.217-1.033-.508-1.505-.98-.473-.473-.764-.947-.98-1.506-.21-.54-.355-1.159-.396-2.063-.033-.726-.046-1.056-.05-2.341V7.336c.004-1.285.017-1.615.05-2.34.041-.905.185-1.523.395-2.064.217-.559.508-1.033.98-1.505.473-.473.947-.764 1.506-.98.54-.21 1.159-.355 2.063-.396.726-.033 1.056-.046 2.341-.05zm-.637 1.53H7.973c-1.792.002-2.086.013-2.908.05-.828.038-1.279.176-1.578.293-.397.154-.68.338-.977.636-.298.297-.482.58-.636.977-.117.3-.255.75-.293 1.578-.037.822-.048 1.116-.05 2.908v1.054c.002 1.792.013 2.086.05 2.908.038.828.176 1.279.293 1.578.154.397.338.68.636.977.297.298.58.482.977.636.3.117.75.255 1.578.293l.408.018.188.007c.467.016.945.022 2.077.024h1.525c1.584-.002 1.888-.013 2.672-.05.828-.037 1.279-.175 1.578-.292.397-.154.68-.338.977-.636.298-.297.482-.58.636-.977.117-.3.255-.75.293-1.578.036-.785.047-1.088.049-2.673V7.738c-.002-1.132-.008-1.61-.024-2.077l-.007-.188-.018-.408c-.038-.828-.176-1.279-.293-1.578-.154-.397-.338-.68-.636-.977-.297-.298-.58-.482-.977-.636-.3-.117-.75-.255-1.578-.293-.822-.037-1.116-.048-2.908-.05zM8.5 4.136c2.41 0 4.365 1.954 4.365 4.365 0 2.41-1.954 4.365-4.365 4.365-2.41 0-4.365-1.954-4.365-4.365 0-2.41 1.954-4.365 4.365-4.365zm0 1.532c-1.565 0-2.833 1.268-2.833 2.833 0 1.565 1.268 2.833 2.833 2.833 1.565 0 2.833-1.268 2.833-2.833 0-1.565-1.268-2.833-2.833-2.833zm4.537-2.724c.564 0 1.02.456 1.02 1.02 0 .563-.456 1.02-1.02 1.02-.563 0-1.02-.457-1.02-1.02 0-.564.457-1.02 1.02-1.02z" transform="translate(-177 -1815) translate(0 1481) translate(50) translate(127 334)"/>
                </g>
            </g>
        </g>
    </g>
</svg>
