<svg xmlns="http://www.w3.org/2000/svg" width="82" height="17" viewBox="0 0 82 17">
    <g fill="none" fill-rule="evenodd">
        <g>
            <path fill="#FFF" d="M0 0H360V2439H0z" transform="translate(-139 -18)"/>
            <g>
                <g fill="#000" fill-rule="nonzero">
                    <path d="M2.821 14.748V9.98h4.39v4.768h2.821V3.165H7.21v4.537H2.822V3.165H0v11.583h2.821zm14.97 0l.694-2.046h4.323l.693 2.046h2.986l-4.19-11.583h-3.268l-4.19 11.583h2.953zm4.29-4.224h-2.854l1.42-4.24 1.435 4.24zm17.198 4.224v-2.31h-4.983L39.28 5.31V3.165h-8.184v2.31h4.95l-4.95 7.128v2.145h8.184zm13.37 0v-2.31h-4.983L52.65 5.31V3.165h-8.184v2.31h4.95l-4.95 7.128v2.145h8.184zm11.307 0V10.92l4.01-7.755h-3.168L62.57 8.016l-2.244-4.851h-3.2l4.009 7.755v3.828h2.821zm12.875.116c.87 0 1.623-.16 2.26-.479.639-.319 1.125-.748 1.46-1.287.336-.539.504-1.139.504-1.799 0-.692-.17-1.259-.511-1.699-.341-.44-.746-.775-1.213-1.006-.468-.231-1.075-.473-1.823-.726-.748-.243-1.298-.468-1.65-.677-.352-.209-.528-.5-.528-.875 0-.34.104-.602.313-.783.21-.182.484-.272.825-.272.396 0 .72.107.974.321.253.215.39.509.412.883h3.053c-.055-1.089-.473-1.939-1.254-2.55-.781-.61-1.81-.915-3.086-.915-1.254 0-2.271.305-3.052.916-.781.61-1.172 1.454-1.172 2.533 0 .726.17 1.314.512 1.765.34.451.748.792 1.22 1.023.474.231 1.084.462 1.832.693.517.154.916.292 1.196.412.28.121.517.275.71.463.192.187.289.423.289.709 0 .341-.121.608-.363.8-.242.193-.572.289-.99.289-.407 0-.737-.113-.99-.338-.253-.226-.402-.553-.446-.982H72.31c.022.759.234 1.408.635 1.947.402.539.938.946 1.61 1.221.67.275 1.43.412 2.276.412z" transform="translate(-139 -18) translate(139 18)"/>
                </g>
            </g>
        </g>
    </g>
</svg>
