<svg xmlns="http://www.w3.org/2000/svg" width="14" height="15" viewBox="0 0 14 15">
    <g fill="none" fill-rule="evenodd">
        <g fill="#FFF" fill-rule="nonzero">
            <g>
                <g>
                    <g>
                        <g>
                            <path d="M7.5 1C5.482 1 3.833 2.704 3.833 4.79c0 1.227.57 2.326 1.452 3.02C3.354 8.692 2 10.682 2 13h1.222c0-2.449 1.908-4.421 4.278-4.421 2.37 0 4.278 1.972 4.278 4.421H13c0-2.317-1.354-4.307-3.285-5.19.882-.694 1.452-1.793 1.452-3.02C11.167 2.703 9.517 1 7.5 1zm0 1.263c1.357 0 2.444 1.124 2.444 2.526 0 1.403-1.087 2.527-2.444 2.527S5.056 6.192 5.056 4.789c0-1.402 1.087-2.526 2.444-2.526z" transform="translate(-62 -140) translate(38 53) translate(0 76) translate(24 10) translate(0 1)"/>
                        </g>
                    </g>
                </g>
            </g>
        </g>
    </g>
</svg>
