<svg xmlns="http://www.w3.org/2000/svg" width="20" height="20" viewBox="0 0 20 20">
    <g fill="none" fill-rule="evenodd">
        <g stroke="#0D0D0D" stroke-width="2.3">
            <g>
                <path d="M9 3.15c1.497 0 2.994.571 4.137 1.713 1.006 1.007 1.57 2.29 1.689 3.605.148 1.636-.389 3.323-1.614 4.592h0l4.246 4.248-4.247-4.247c-1.262 1.308-2.98 1.898-4.652 1.772-1.347-.1-2.666-.666-3.696-1.696C3.721 11.994 3.15 10.497 3.15 9c0-1.497.571-2.994 1.713-4.137C6.006 3.721 7.503 3.15 9 3.15z" transform="translate(-279 -18) translate(279 18)"/>
            </g>
        </g>
    </g>
</svg>
