<svg xmlns="http://www.w3.org/2000/svg" width="15" height="12" viewBox="0 0 15 12">
    <g fill="none" fill-rule="evenodd">
        <g fill-rule="nonzero">
            <g>
                <g>
                    <path fill="#000" d="M3 2H4.5V11H3z" transform="translate(-18 -273) translate(18 272) translate(0 1)"/>
                    <path stroke="#000" stroke-width="1.2" d="M5.5 0L2 3 5.5 6.002" transform="translate(-18 -273) translate(18 272) translate(0 1) rotate(90 3.75 3)"/>
                    <path fill="#000" d="M10 1H11.5V10H10z" transform="translate(-18 -273) translate(18 272) translate(0 1) matrix(1 0 0 -1 0 11)"/>
                    <path stroke="#000" stroke-width="1.2" d="M12.5 5.998L9 8.998 12.5 12" transform="translate(-18 -273) translate(18 272) translate(0 1) matrix(0 -1 -1 0 19.75 19.75)"/>
                </g>
            </g>
        </g>
    </g>
</svg>
