<svg xmlns="http://www.w3.org/2000/svg" width="19" height="15" viewBox="0 0 19 15">
    <g fill="none" fill-rule="evenodd">
        <g fill="#000">
            <g>
                <g>
                    <g>
                        <path d="M6.745 8.897V3.704l4.592 2.606-4.592 2.587zM16.83 2.804s-.166-1.273-.676-1.834c-.646-.737-1.37-.74-1.703-.783C12.072 0 8.504 0 8.504 0h-.008S4.928 0 2.55.187C2.216.23 1.492.233.845.97.335 1.53.17 2.804.17 2.804S0 4.3 0 5.796v1.402c0 1.496.17 2.991.17 2.991s.166 1.274.675 1.835c.647.736 1.497.713 1.875.79C4.08 12.956 8.5 13 8.5 13s3.572-.006 5.951-.193c.332-.043 1.057-.047 1.703-.783.51-.561.676-1.835.676-1.835S17 8.694 17 7.198V5.796c0-1.496-.17-2.992-.17-2.992z" transform="translate(-178 -1856) translate(0 1481) translate(50) translate(75) translate(54 376)"/>
                    </g>
                </g>
            </g>
        </g>
    </g>
</svg>
