<svg xmlns="http://www.w3.org/2000/svg" width="19" height="19" viewBox="0 0 19 19">
    <g fill="none" fill-rule="evenodd">
        <g fill="#FFF">
            <g>
                <g>
                    <path d="M162.056 7.999h.25l.655.002c1.305.005 1.676.02 2.455.055 1.012.046 1.702.207 2.307.441.624.243 1.154.568 1.682 1.096.529.528.853 1.058 1.096 1.683.235.604.396 1.295.442 2.306.039.858.053 1.221.056 2.876l.001.753v1.33c-.003 1.203-.011 1.724-.03 2.248l-.008.198-.02.43c-.045 1.01-.206 1.701-.44 2.306-.244.624-.568 1.154-1.097 1.682-.528.529-1.058.853-1.682 1.096-.605.235-1.295.396-2.307.442l-.429.019-.198.007c-.524.02-1.045.028-2.248.03l-.754.001h-1.329c-1.655-.004-2.018-.018-2.876-.057-1.011-.046-1.702-.207-2.306-.442-.625-.243-1.155-.567-1.683-1.096-.528-.528-.853-1.058-1.096-1.682-.234-.605-.395-1.295-.441-2.307-.036-.78-.05-1.15-.055-2.455l-.002-.654V16.943v-.251l.002-.655c.005-1.304.02-1.675.055-2.455.046-1.011.207-1.702.441-2.306.243-.625.568-1.155 1.096-1.683.528-.528 1.058-.853 1.683-1.096.604-.234 1.295-.395 2.306-.441.78-.036 1.151-.05 2.455-.055l.655-.002h.25zm.237 1.712h-1.587c-1.188.001-1.745.007-2.235.022l-.193.007c-.193.007-.387.015-.618.026-.926.042-1.43.197-1.764.327-.443.172-.76.378-1.092.71-.333.333-.539.65-.711 1.093-.13.335-.285.838-.327 1.764-.01.231-.02.425-.026.618l-.007.193c-.015.49-.02 1.047-.022 2.235v1.587c.002 1.822.014 2.16.055 3.045.042.927.197 1.43.327 1.765.172.443.378.76.71 1.092.333.332.65.538 1.093.71.335.13.838.286 1.764.328.848.038 1.193.051 2.817.054l.475.001h1.57c1.623-.004 1.969-.017 2.816-.055.927-.042 1.43-.197 1.765-.327.443-.173.76-.379 1.092-.711.332-.333.538-.649.71-1.092.13-.335.286-.838.328-1.765.038-.847.051-1.193.054-2.816l.001-.476V17.216v-.739c-.004-1.624-.017-1.97-.055-2.817-.042-.926-.197-1.43-.327-1.764-.173-.443-.379-.76-.711-1.092-.332-.333-.649-.539-1.092-.711-.335-.13-.838-.285-1.765-.327-.886-.04-1.223-.053-3.045-.055zm-.794 2.91c2.695 0 4.879 2.184 4.879 4.878 0 2.695-2.184 4.879-4.879 4.879-2.694 0-4.878-2.184-4.878-4.879 0-2.694 2.184-4.878 4.878-4.878zm0 1.711c-1.749 0-3.167 1.418-3.167 3.167 0 1.75 1.418 3.167 3.167 3.167 1.75 0 3.167-1.418 3.167-3.167 0-1.749-1.418-3.167-3.167-3.167zm5.072-3.044c.63 0 1.14.51 1.14 1.14 0 .63-.51 1.14-1.14 1.14-.63 0-1.14-.51-1.14-1.14 0-.63.51-1.14 1.14-1.14z" transform="translate(-152 -5971) translate(0 5913) translate(0 50)"/>
                </g>
            </g>
        </g>
    </g>
</svg>
