<svg xmlns="http://www.w3.org/2000/svg" width="82" height="17" viewBox="0 0 82 17">
    <g fill="none" fill-rule="evenodd">
        <g fill="#FFF" fill-rule="nonzero" stroke="#FFF" stroke-width=".3">
            <g>
                <g>
                    <path d="M76.708 2.85c.661 0 1.274.157 1.84.47.57.313 1.015.767 1.335 1.36-.554.665-1.147 1.029-1.826 1.409-.533-.595-.857-.899-1.2-.9-.325-.009-.578.06-.751.224-.167.157-.25.35-.25.579 0 .271.1.504.3.699.3.196.75.397 1.351.605.702.253 1.179.45 1.43.587.537.286.941.662 1.213 1.124.412.659.618 1.37.618 2.136 0 .63-.15 1.189-.447 1.676-.435.711-.963 1.231-1.583 1.563-.62.332-1.334.477-2.14.43-1.368-.083-2.4-.697-3.096-1.843-.257-.442-.346-.771-.298-.983h0l2.12-1.261c.113.392.255.678.47 1.044.338.385.715.584 1.135.584.336 0 .634-.132.898-.39.263-.258.397-.554.397-.888-.313-.814-.693-1.118-1.23-1.34h0l-1.502-.58c-.64-.318-1.154-.77-1.544-1.354-.393-.59-.57-1.218-.535-1.882.024-.666.255-1.282.695-1.847.441-.566.978-.931 1.612-1.099.33-.082.659-.123.988-.123zm-36.345.253l-5.527 8.978h5.418l.097 2.458-9.845.088 5.56-8.978h-5.57L30.4 3.191l9.963-.088zm14.42 0l-5.526 8.978h5.418l.097 2.458-9.845.088 5.56-8.978h-5.57l-.096-2.458 9.963-.088zm-32.818 0l4.483 11.374-2.678.154-.886-2.25h-4.011l-.867 2.244h-2.767l4.259-11.467 2.467-.055zm-1.094 3.603l-1.187 3.131h2.259l-1.072-3.13zM10.618 3.1l.087 11.435-2.457.097-.085-4.664H3.394v4.549l-2.44.116L.848 3.196l2.457-.097.085 4.324H8.16V3.196l2.458-.097zm50.863.003l2.523 3.71 2.505-3.707h2.556l-3.789 6.26v5.17l-2.439.096-.104-5.262L58.79 3.2l2.69-.097z" transform="translate(-227 -143) translate(88 125) translate(139 18)"/>
                </g>
            </g>
        </g>
    </g>
</svg>
